# Created by Metasequoia

v 100.142502 34.644627 -13.521601
v 81.297249 -20.514725 5.128200
v -100.712296 34.079277 5.128207
v 100.059395 34.710625 -86.324844
v 100.142502 34.644627 23.777996
v 100.059395 34.710625 96.581253
# 6 vertices

vt 0.50000 1.00000
vt 0.50000 0.00000
vt 0.00000 0.00000
vt 0.00000 1.00000
# 4 texture vertices

vn 0.08761 0.29207 0.95237
vn 0.00000 0.00000 1.00000
vn -0.00273 1.00000 0.00091
vn 0.08761 0.29207 -0.95237
vn -0.00273 1.00000 -0.00091
vn -0.00273 1.00000 0.00000
vn -0.00000 0.00000 -1.00000
vn -0.08761 -0.29207 -0.95237
vn 0.00273 -1.00000 -0.00000
vn 0.00273 -1.00000 -0.00091
vn -0.08761 -0.29207 0.95237
vn 0.00273 -1.00000 0.00091
# 12 normal vertices

g base
f 3/1/2 2/2/2 1/3/1
f 1/3/3 4/4/3 3/1/6
f 2/2/7 3/1/7 5/3/4
f 6/4/5 5/3/5 3/1/6
f 1/3/8 2/2/7 3/1/7
f 3/1/9 4/4/10 1/3/10
f 5/3/11 3/1/2 2/2/2
f 3/1/9 5/3/12 6/4/12
# 8 elements

